<svg width="48" height="49" viewBox="0 0 48 49" fill="none" xmlns="http://www.w3.org/2000/svg">
<path d="M23.5518 8.05469L31.0293 1.10938L30.4102 10.7275L34.4512 12.5791C34.5736 12.6156 36.1485 16.9461 37.2354 18.3857L47.0996 23.7285C46.0146 27.8051 40.8701 31.1234 39.874 31.4355C39.4971 31.5491 37.3802 31.375 35.9883 31.0947C34.838 30.812 31.4115 30.31 31.0049 31.2158C29.8234 33.8208 30.8798 36.9984 32.4238 39.6348L29.0186 38.6973C28.5812 42.8006 26.6524 45.6721 23.1943 48.3086C20.6642 44.2054 17.5347 42.1502 13.3564 40.71L13.5596 43.5186C9.89126 39.7415 7.26666 36.0583 6.08496 31.5176L2.95508 34.8965C2.31234 30.0298 2.51557 26.3366 4.38574 22.8086L0 23.9678C1.80268 21.0681 3.67334 18.3856 6.46191 16.0586L4.47754 15.2197C7.46189 12.4892 10.7076 10.6598 13.4189 9.24609C14.7191 5.80743 16.5511 3.07864 20.3691 0L23.5518 8.05469ZM16.3701 31.0635C21.1548 35.592 23.9199 39.2755 24.4492 44.0264C26.8608 40.6795 26.9817 37.9163 27.1025 34.0498L28.46 35.9668C28.1942 34.6209 27.9621 33.2042 28.3994 31.5176C26.5003 32.3803 25.0554 34.0963 24.0889 36.5342C22.3152 34.6203 21.1987 32.1213 20.1113 29.8232L20.792 28.8887L17.4844 28.7334L16.3701 31.0635ZM15.1855 32.7793C14.3447 34.4418 13.3204 36.535 13.3203 38.3594C17.3124 39.86 19.5363 41.049 22.0664 43.4268C20.5028 37.6368 17.0173 34.3501 15.1855 32.7793ZM12.9102 11.9385C11.1992 12.9027 10.0194 13.71 8.72168 14.7129L10.9746 15.6475C8.69107 17.0877 6.79372 18.7144 5.34863 20.4639L9.05273 19.4346C6.70381 22.7066 5.23037 25.4694 5.07812 29.2441L7.50879 26.4043C7.80119 29.0407 7.92229 31.4476 11.1387 37.1699L11.2598 37.0781C11.4894 34.5795 13.1154 32.5249 15.0703 28.54L8.48535 28.6035L12.0303 23.0039L8.81348 23.0645C10.3166 20.614 11.5545 19.0432 13.2969 17.3564C12.7411 15.3652 12.7579 14.0216 12.9102 11.9385ZM24.8379 10.8799C20.9424 13.3182 15.4857 17.7336 13.1367 20.9404L16.2344 20.626L12.7334 26.5059H16.3408L18.6953 26.5371L26.457 26.9795L22.4648 29.9707L23.7627 32.3799C25.5365 29.7923 29.0377 28.4145 31.8262 28.4434C34.4216 28.4748 38.6897 29.1903 39.5283 29.2217C40.495 29.0984 42.3294 27.6994 43.168 26.6289C42.3609 25.9933 41.5223 24.8043 41.7832 23.3037L35.4854 20.0166L32.7158 14.3184L24.8379 10.8799ZM34.0117 19.6084L31.4648 18.8936C30.5297 19.0482 29.5968 19.0479 28.8477 18.0186C28.2603 17.2091 26.8171 16.6438 25.377 16.1992L31.4336 16.0469L34.0117 19.6084ZM19.4707 3.35449C15.8628 7.5109 14.72 11.4285 15.3047 15.7637L17.0781 14.1377C16.7858 11.9339 16.9868 9.63498 18.0742 7.19434L19.8447 12.0615L22.0664 10.2393L19.4707 3.35449ZM25.9131 8.80664L28.165 9.83594L28.3682 6.36816L25.9131 8.80664Z" fill="#00EFFF"/>
</svg>
